# xmcd
#
# Track frame offsets:
#	150
#	16658
#	30445
#	43807
#	61557
#	81385
#	97097
#	109955
#	126476
#	139628
#	150161
#	166674
#	181106
#	190814
#	198416
#	213511
#	225265
#	245235
#	259625
#	272157
#	282332
#	294795
#
# Disc length: 4135 seconds
#
# Revision: 1
# Processed by: cddbd v1.5.2PL0 Copyright (c) Steve Scherf et al.
# Submitted via: audiograbber 1.83.01
#
DISCID=2a102516
DTITLE=E. H. King Music - E. H. King Music 094
DYEAR=2009
DGENRE=Country
TTITLE0=Day Dreaming  - Kitty Houston
TTITLE1=Don´t Make Me Cry  - Dub Benson
TTITLE2=If I Had Wings  - Tammy Powell
TTITLE3=Distant Echoes  - Loman Craig
TTITLE4=Poorer Than Dirt  - Loman Craig
TTITLE5=Wayfaring Pilgrim  - Don Powell
TTITLE6=Tune Into God  - Phil Coley
TTITLE7=High Cost Of Dying  - Kitty Houston
TTITLE8=A Silly Notion - Loman Craig
TTITLE9=You Ain´t Much With Me  - Mandy Taylor
TTITLE10=Was Once A Travling Man  - Tj Murr
TTITLE11=My One And Only One  - Ray R Jones
TTITLE12=I´m Chickin Tired Of You  - David Fox
TTITLE13=The Thomas Cat Theme - Jim Barribeau
TTITLE14=Lust A First Sight  - Roger Eydenburgh
TTITLE15=God´s Camera  - Tj Murr
TTITLE16=Little Jimbo  - Loman Craig
TTITLE17=Driving Cars For Enterprise  - William Harris and David Langley
TTITLE18=Life´s A Pit Stop  - Loman Craig
TTITLE19=Talking Beats Walking - David Fox
TTITLE20=This House Is Not A Home - Ray R Jone
TTITLE21=Last Straw Sips The Slowest  - Phil Coley
EXTD=
EXTT0=
EXTT1=
EXTT2=
EXTT3=
EXTT4=
EXTT5=
EXTT6=
EXTT7=
EXTT8=
EXTT9=
EXTT10=
EXTT11=
EXTT12=
EXTT13=
EXTT14=
EXTT15=
EXTT16=
EXTT17=
EXTT18=
EXTT19=
EXTT20=
EXTT21=
PLAYORDER=
